<svg id="Lag_1" data-name="Lag 1" xmlns="http://www.w3.org/2000/svg" viewBox="0 0 95 38"><defs><style>.cls-1{fill:none;stroke:#fefceb;stroke-miterlimit:10;stroke-width:2px;}.cls-2{fill:#fefceb;}</style></defs><title>arrow</title><path class="cls-1" d="M26.88,10.14A36.81,36.81,0,0,0,38,12c7.91.07,11.57-2.56,20-3a45.85,45.85,0,0,1,12.69,1.14"/><path class="cls-1" d="M70.69,27.61A27.71,27.71,0,0,0,60,25c-8.15-.27-12,3.48-21,4a36.47,36.47,0,0,1-12.12-1.39"/><polyline class="cls-1" points="32.22 34 17.26 25.26 5.5 18.54 19.39 10.47 32.22 3.75"/><polyline class="cls-1" points="64.28 34 79.24 25.26 91 18.54 77.11 10.47 64.28 3.75"/><path class="cls-2" d="M35.8,22.56l-.06,0h0a1.27,1.27,0,0,1-.54-.43,2.52,2.52,0,0,1-.35-.61q.18.09.24,0a.7.7,0,0,0,.12-.3c0-.12.06-.19.1-.17.4.39.61.58,1,.93h.07l.13,0c.09,0,.15.06.15.11l.28.07a1.54,1.54,0,0,1,.3.12.41.41,0,0,0,.13.08,2.77,2.77,0,0,0,1.31,0,.66.66,0,0,0,.59-.71,1.46,1.46,0,0,0-.17-.53.83.83,0,0,0-.37-.39,15.69,15.69,0,0,1-3.15-2,2.32,2.32,0,0,1-.67-.83,2.4,2.4,0,0,1-.25-1,.62.62,0,0,1,.07-.37,1.69,1.69,0,0,1,.2-.25,2,2,0,0,0,.15-.15A1.36,1.36,0,0,1,36,16a9.35,9.35,0,0,1,1.37.21l.28.09c.13,0,.32.07.52.12l.66.18.39.1.22.21c0,.31,0,.47,0,.78a.43.43,0,0,1-.09.19c-.06.09-.11.14-.14.14l-.6-.31-.86-.48A3.08,3.08,0,0,0,36,16.85a.49.49,0,0,0-.47.59,1,1,0,0,0,.2.43,3.42,3.42,0,0,0,.43.51,1,1,0,0,0,.39.27l.15,0a4.35,4.35,0,0,1,.66.47,3.41,3.41,0,0,0,.52.37,3,3,0,0,0,.59.17,2.58,2.58,0,0,1,.79.38,3,3,0,0,1,.68.58,1.19,1.19,0,0,1,.29.69.73.73,0,0,1,0,.3,1.34,1.34,0,0,1,0,.18.94.94,0,0,0-.08.31,4.49,4.49,0,0,1-.19.67.5.5,0,0,1-.24.26,1.71,1.71,0,0,1-.64.12s0,0,0,0l0,0a3.74,3.74,0,0,1-.7.11,2.25,2.25,0,0,1-.67-.07,5,5,0,0,1-.94-.3,7.26,7.26,0,0,1-.82-.39S35.81,22.56,35.8,22.56Zm-.69-5c.08,0,.12,0,.11-.15L35,17.26C35,17.4,35,17.49,35.11,17.53Zm-.1-.48a.22.22,0,0,0,.1.11.09.09,0,0,0,.12,0,.16.16,0,0,0,0-.12L35,16.89A.37.37,0,0,0,35,17.05Zm0-.25.28.12v-.09Q35,16.71,35,16.8Zm.11.87a.17.17,0,0,0,.12,0s0,0,0-.05v0l-.21,0Zm0,.19.16.07v-.07l-.16-.07Zm.36,4.25a.38.38,0,0,0,.17.11.2.2,0,0,0,.15,0s.06-.07.05-.16v0h-.28L35.53,22v0h.16c.1,0,.15,0,.17-.06l-.07-.08a.56.56,0,0,0-.13-.07.13.13,0,0,0-.17,0,.24.24,0,0,0-.05.16A.24.24,0,0,0,35.51,22.11Zm-.19-5.6a.22.22,0,0,0-.09.2.22.22,0,0,0,.25,0,.27.27,0,0,0,.08-.25A.34.34,0,0,0,35.32,16.51Zm.1,1.5a.14.14,0,0,0-.05.08l.08,0c.08,0,.13,0,.15,0L35.54,18l-.06,0S35.44,18,35.42,18Zm.09.3s0,0,.07.08a.39.39,0,0,1,.09.08c.08.05.17,0,.16-.14a.54.54,0,0,0-.21,0c-.07,0-.1,0-.1,0ZM36,22.12a.25.25,0,0,0-.06.19l.16.07L36,22.3a.39.39,0,0,0,.14-.08.17.17,0,0,0,.06-.11A.25.25,0,0,0,36,22.12Zm-.09-5.85q-.21,0-.21.09s0,0,.09.06a.73.73,0,0,0,.3,0q.18,0,.18-.12A1.28,1.28,0,0,0,35.91,16.27Zm0,2.26a.24.24,0,0,1,0,.07l.31.11s0-.07-.07-.12a.7.7,0,0,0-.14-.08S35.93,18.5,35.92,18.53Zm.44,4a.51.51,0,0,0,.18.09.16.16,0,0,0,.2,0,.27.27,0,0,0,.07-.2c-.38-.12-.61,0-.56.07Zm0-3.52a.53.53,0,0,0,.16.1.12.12,0,0,0,.07,0s.06,0,.06-.07l-.09-.08-.35-.05ZM37,22.54a.31.31,0,0,0,0,.24l.59.16,0,0s0,0,0,0a.24.24,0,0,0-.08-.21.46.46,0,0,0-.21-.11C37.12,22.52,37,22.51,37,22.54Zm-.13-3.29.29.1c0-.11-.14-.2-.39-.28A.17.17,0,0,0,36.84,19.25Zm0-2.78.07.05a.43.43,0,0,0,.16,0c.06,0,.09,0,.08-.07l-.17,0-.21,0Zm2.1,1a.52.52,0,0,0,.17.09c0-.2.07-.3.12-.51,0-.05-.26-.13-.78-.27a7.9,7.9,0,0,0-1.12-.31l0,0a.06.06,0,0,0,0,.05c0,.07.06.12.17.14h.06c.12,0,.18,0,.19-.05a.34.34,0,0,0,.11.18.32.32,0,0,0,.17.09.2.2,0,0,0,.11,0,.09.09,0,0,0,0-.06l.23.22.2-.17v.21l.13,0,.2-.07H39a.61.61,0,0,1,0,.16.7.7,0,0,0,0,.14A.17.17,0,0,0,39,17.42Zm-1.21,2.37h.07a2.52,2.52,0,0,0-.37-.2A.59.59,0,0,0,37.76,19.79Zm0,3.14a.45.45,0,0,0,.25.12h0c.11,0,.16,0,.18,0a3.89,3.89,0,0,0,1-.1.54.54,0,0,0,.43-.52.33.33,0,0,0-.21-.08s-.08.06-.13.17a.72.72,0,0,1-.15.25.22.22,0,0,1-.2.08l-.08,0a.26.26,0,0,0-.1,0,2.83,2.83,0,0,0-.45,0h-.17l-.18,0-.24-.06-.08,0s-.06,0-.06.06S37.68,22.86,37.75,22.93Zm.28-.08s0,0,.09.08l-.12,0v-.05Zm.23-2.79.05-.06-.15,0Zm.37.31a.55.55,0,0,0,.26.12v-.1h-.07l0-.05a.06.06,0,0,0,0-.05c0-.11-.09-.17-.25-.19h-.06c-.11,0-.17,0-.17,0A1.63,1.63,0,0,0,38.63,20.37Zm.11-3.24a.07.07,0,0,0,0,.06v0l.13-.12h0A.08.08,0,0,0,38.74,17.13ZM39,20.59a4,4,0,0,0,.49,0c0-.08-.11-.13-.29-.14S39,20.51,39,20.59Zm.45.66a.29.29,0,0,0,.2-.05.4.4,0,0,0,.16-.12s.07-.08.06-.1a.18.18,0,0,0-.09-.16.37.37,0,0,0-.2-.05.68.68,0,0,0-.2,0c-.08,0-.13,0-.13.06V21l.34.14A.14.14,0,0,0,39.46,21.25Zm.06,1a.3.3,0,0,0,.29-.13.68.68,0,0,0,.07-.36.59.59,0,0,0-.19.05c-.07,0-.1.08-.1.12a.43.43,0,0,0,.07.17C39.56,22.08,39.51,22.13,39.52,22.22Zm.21-.66q.21,0,.24-.09a.76.76,0,0,0,0-.33.56.56,0,0,0-.27.11c-.11.07-.16.13-.16.2S39.62,21.55,39.73,21.56Z"/><path class="cls-2" d="M47.62,17a2.29,2.29,0,0,1,0,.47c0,.15-.08.33-.14.55a5.89,5.89,0,0,0-.14.62c0,.14,0,.27,0,.35a1.92,1.92,0,0,1,0,.22,2.13,2.13,0,0,1,0,.25,1.11,1.11,0,0,1-.12.35,1.38,1.38,0,0,0-.12.48.75.75,0,0,0,0,.11c-.11.51-.16.77-.27,1.29a.78.78,0,0,1,0,.09.43.43,0,0,1-.24.38,2.23,2.23,0,0,1-.56.27l-.36-.14a1.22,1.22,0,0,1-.35-.39,1,1,0,0,1-.17-.38,1.37,1.37,0,0,0-.15-.31,4,4,0,0,1-.2-.37c-.07-.14-.11-.21-.19-.35a2.35,2.35,0,0,1-.13-.42c-.06-.22-.11-.35-.12-.38l-.15,1a2.64,2.64,0,0,0-.21.87l-.08.38a2.93,2.93,0,0,1-.31.74.75.75,0,0,1-.49.32,1.39,1.39,0,0,1-.65-.07,1.1,1.1,0,0,1,0-.18.24.24,0,0,0,0-.12.35.35,0,0,0-.09-.07.31.31,0,0,1-.09-.11,4.23,4.23,0,0,0-.37-.91,7,7,0,0,1-.3-.71,2.15,2.15,0,0,1-.13-.6c-.06,0-.11,0-.13,0a.16.16,0,0,1,0-.11.52.52,0,0,0-.06-.16q0-.11-.15-.3c-.1-.19-.17-.35-.22-.47a2.17,2.17,0,0,1-.11-.44,1.37,1.37,0,0,1,0-.16c0-.07,0-.1.05-.1.32,0,.48,0,.81-.07.05,0,.15.1.31.3s.3.43.45.66a1.6,1.6,0,0,1,.22.42c.16.34.23.51.38.84a2,2,0,0,0,.07.23.9.9,0,0,1,0,.15H43s.08-.1.11-.27.09-.42.15-.74c.1-.6.2-1.07.29-1.43s.21-.55.35-.58.1,0,.1,0l.35-.11a.65.65,0,0,1,.3,0,.29.29,0,0,1,.15.12c0,.07.1.2.19.4v0s0,.06.07.09c.1.33.15.5.26.84a3.51,3.51,0,0,0,.31.7c.15.27.28.39.39.35s.14-.13.17-.31.07-.46.11-.84,0-.53.07-.62.1-.36.17-.61.13-.46.18-.62,0,0,0-.06a.26.26,0,0,1,.09-.18.44.44,0,0,1,.19-.12A1,1,0,0,1,47.62,17Zm-6.37,2.3.17-.05.18-.05c-.09-.17-.13-.26-.23-.44a1.21,1.21,0,0,0-.49,0A1,1,0,0,0,41,19a.17.17,0,0,0,.16.05l.11,0a.37.37,0,0,0-.07.1l-.06.1v0C41.11,19.32,41.16,19.35,41.25,19.34Zm.1.38.07-.11a.35.35,0,0,0,.06-.16l-.29,0A.28.28,0,0,0,41.35,19.72Zm.21.67c.1.19.2.28.29.26s.07,0,.15-.12l.21-.2H42a.25.25,0,0,1-.18-.07,1,1,0,0,0,.19-.22.43.43,0,0,0,.08-.21l-.66.08A1.24,1.24,0,0,0,41.56,20.39Zm.19-.9-.2.21.37,0C41.91,19.6,41.86,19.55,41.75,19.49Zm.31,1.17-.17.18.56-.08a.33.33,0,0,0-.16-.3C42.22,20.51,42.15,20.58,42.06,20.66Zm0,.72a.22.22,0,0,0,.22.07.85.85,0,0,0,.24-.09.16.16,0,0,0,.09-.17c0-.08,0-.12-.1-.11l-.16.06a.79.79,0,0,1-.22.06.3.3,0,0,0,.2-.1.31.31,0,0,0,.07-.21l-.31.06a.16.16,0,0,0-.11.17A.5.5,0,0,0,42.05,21.38Zm.38.17-.3,0a.46.46,0,0,0,.09.19C42.37,21.69,42.44,21.61,42.43,21.55Zm.09.09a.71.71,0,0,0-.11.17.56.56,0,0,1-.11.15l.24,0c.16,0,.23-.07.23-.14a.4.4,0,0,0,0-.17.1.1,0,0,0-.12-.05A.14.14,0,0,0,42.52,21.64Zm1,.14c0-.14,0-.22,0-.23l-.15,0a.48.48,0,0,1-.08.36.7.7,0,0,1-.3.15,1.33,1.33,0,0,0-.35.14l.06-.13-.37,0a.21.21,0,0,0,.1.18.42.42,0,0,0,.25,0l.34-.14.44-.21C43.54,22,43.57,21.92,43.56,21.78Zm-.91,1.1s0,0,0-.07h0l-.09,0-.08.06h.06Zm.41-.39a.2.2,0,0,0,0-.14l-.16,0c-.25,0-.38.11-.4.2a2.26,2.26,0,0,0,.41.06A.58.58,0,0,0,43.06,22.49Zm.27,0a1.34,1.34,0,0,0,.07-.18c0-.06,0-.1,0-.12h0a.21.21,0,0,0-.18.18.48.48,0,0,0,0,.22A.19.19,0,0,0,43.33,22.52Zm.4-1.7a.63.63,0,0,0,.13-.41.62.62,0,0,0-.34.29.74.74,0,0,0-.16.42A.91.91,0,0,0,43.73,20.82Zm-.07.47a1.31,1.31,0,0,0,0-.25h0a.47.47,0,0,0-.19.12.24.24,0,0,0-.1.18s.07.07.15.06A.16.16,0,0,0,43.66,21.29Zm.19-1.15a1.28,1.28,0,0,0,.09-.54.54.54,0,0,0-.26.15.27.27,0,0,0-.11.23s0,0,0,.08a.12.12,0,0,1,0,.08.4.4,0,0,1-.07.13.4.4,0,0,0-.07.19A.43.43,0,0,0,43.85,20.14Zm-.17-.6v.07l.15-.1ZM44,19.2c-.21.05-.31.12-.31.21l.31-.07Zm0-.23c.13-.07.19-.13.19-.16l-.4.1,0,.21Zm-.1-.52a.45.45,0,0,0-.05.25,0,0,0,0,0,0,0H44l.68-.18.06-.07a.26.26,0,0,0-.15-.12.3.3,0,0,0-.21,0l-.14.06.07-.08a.07.07,0,0,0-.06-.06.26.26,0,0,0-.11,0A.23.23,0,0,0,44,18.45Zm.5.59a.73.73,0,0,1,0,.12.26.26,0,0,0,.05.14.2.2,0,0,0,.16.05.24.24,0,0,0-.14.1.23.23,0,0,0,0,.15.55.55,0,0,0,.32-.22A.58.58,0,0,0,45,19s0-.06-.09-.13a.4.4,0,0,1-.09-.17,1,1,0,0,0-.45.28C44.4,19,44.44,19,44.46,19Zm.29.61c-.07.09-.1.14-.1.17l.49-.14a.35.35,0,0,1-.06-.09.29.29,0,0,0-.06-.1s-.06,0-.12,0S44.82,19.55,44.75,19.65Zm0,.52c0,.06.06.08.1.07a.53.53,0,0,0,.2-.15.35.35,0,0,0,.11-.21l-.45.12A.68.68,0,0,0,44.76,20.17Zm.23.41c0,.05,0,.06.07.05l.25-.2a.46.46,0,0,0-.35,0A.32.32,0,0,0,45,20.58Zm.3-.42a.08.08,0,0,0-.1,0l-.07.05a.18.18,0,0,0-.09.06c0,.05.12.06.3,0A.23.23,0,0,0,45.29,20.16Zm-.16.65.14,0a.61.61,0,0,0,.23-.11.24.24,0,0,0,.06-.21A.87.87,0,0,0,45.13,20.81Zm.4.26c.11-.1.16-.18.15-.25a.11.11,0,0,0,0-.05s0,0-.05,0l-.41.25.08.24C45.35,21.23,45.43,21.18,45.53,21.07Zm0,.68a1.72,1.72,0,0,0,.42-.44l-.1,0a1.23,1.23,0,0,0-.26.12.2.2,0,0,0-.11.2A.1.1,0,0,0,45.5,21.75Zm.26-.78-.32.41a1.34,1.34,0,0,0,.25-.11.62.62,0,0,0,.22-.16.17.17,0,0,0,0-.13s0-.05-.06,0Zm.14.92a.5.5,0,0,0,.11-.21l-.4.19v.06a.23.23,0,0,0,0,.13s0,0,.1,0A.52.52,0,0,0,45.9,21.89Zm.57-.86a1.43,1.43,0,0,1-.38.31l-.14.1a1.3,1.3,0,0,0-.22.19s.06.05.14,0a.64.64,0,0,0,.22-.11.28.28,0,0,1,.11-.07.39.39,0,0,1,.11,0,.3.3,0,0,0,.18,0C46.48,21.29,46.48,21.2,46.47,21Zm-.36.94a.2.2,0,0,0,.15-.11.49.49,0,0,0,0-.2A1.39,1.39,0,0,0,46,22Zm.53-1.16a1.44,1.44,0,0,0,0-.35,2.6,2.6,0,0,1,0-.28.4.4,0,0,1,.07-.19s0,0-.05,0h-.08l0,0a.09.09,0,0,0,0,.06,3.53,3.53,0,0,0,0,.41c0,.16,0,.29,0,.4V21A.24.24,0,0,0,46.64,20.81Zm.14-1a.23.23,0,0,0,.09-.18s0-.05,0-.05l-.1,0a.16.16,0,0,0-.12.12.58.58,0,0,0,0,.21A.44.44,0,0,0,46.78,19.79Zm.09-.43a.21.21,0,0,0,.1-.17s-.07-.07-.15-.11a.58.58,0,0,0-.2,0c0,.18,0,.27,0,.45A.53.53,0,0,0,46.87,19.36Zm.49-2a2.38,2.38,0,0,0-.31.27.49.49,0,0,0-.15.31c0,.07.06.08.16.05a.81.81,0,0,0-.26.29.73.73,0,0,0-.08.37.59.59,0,0,0,.19-.18c.07-.1.13-.16.18-.17h0A1.83,1.83,0,0,0,47.36,17.4Zm-.28,1.08-.2.19c-.09.08-.13.14-.13.16s.07.08.21.17A1,1,0,0,0,47.08,18.48Zm-.15-1H47a.41.41,0,0,0,.17-.16l-.16,0A.14.14,0,0,0,46.93,17.48Z"/><path class="cls-2" d="M49.87,20.76a.55.55,0,0,1-.11-.17,6.15,6.15,0,0,1-.26-1.21c-.06-.43-.1-1-.14-1.57,0-.13,0-.2,0-.33a3.36,3.36,0,0,1,.06-1.06.75.75,0,0,1,.51-.53c.27-.09.46-.05.57.14a1.84,1.84,0,0,1,.2.81,9.62,9.62,0,0,1,0,1.3,8.57,8.57,0,0,0,0,1q0,.25.09.75c0,.08,0,.18,0,.3a4.1,4.1,0,0,1,0,.41c0,.12,0,.2-.13.22a2.08,2.08,0,0,1-.34.05l-.35,0A.42.42,0,0,0,49.87,20.76Zm-.18-6.88a2.45,2.45,0,0,1,.38-.15.62.62,0,0,1,.21,0c.09,0,.13,0,.13.05l.05.77c0,.1-.06.16-.19.21s-.37.11-.58.16-.32,0-.32-.05c0-.27,0-.4,0-.66l.14-.17S49.55,14,49.69,13.88ZM49.62,17s0,0,0,0h.05c.07,0,.14-.1.23-.23l.17-.23h0a1.08,1.08,0,0,0-.26.15.28.28,0,0,0-.17.24Zm.24-.39c.29-.1.43-.2.43-.28a.35.35,0,0,0,0-.16s0,0-.11,0,0,0-.09.07l-.11.07s0,0-.06,0a.09.09,0,0,0-.09,0l-.11.06a.58.58,0,0,0-.08.14.18.18,0,0,0,.17,0l0,0,0,.15Zm-.16,1.08h0a3.21,3.21,0,0,0,.45-.54l-.1,0a.77.77,0,0,0-.3.19.33.33,0,0,0-.12.28S49.68,17.66,49.7,17.67Zm.16.84a.37.37,0,0,0-.12.25.56.56,0,0,0,.26-.18c.09-.09.14-.17.13-.25A.71.71,0,0,0,49.86,18.51Zm-.11-.39s0,.06,0,.1l.26-.37H50C49.81,17.91,49.74,18,49.75,18.12Zm.35.49c-.13.16-.22.28-.29.38l.54-.19s.07-.07.07-.16a1.91,1.91,0,0,0,0-.34l-.1,0A1.9,1.9,0,0,0,50.1,18.61Zm-.2.74.33-.38V18.9c-.28.14-.41.25-.41.34S49.85,19.37,49.9,19.35Zm-.27-4.92a.12.12,0,0,0,.15.06,1.06,1.06,0,0,0,.28-.13.18.18,0,0,0,.07-.19.19.19,0,0,0-.05-.12l-.08.07a.19.19,0,0,1-.11.07l.07-.1-.38.14A.46.46,0,0,0,49.63,14.43Zm.15,2.77a1.43,1.43,0,0,1,.35-.18l.14-.07s0-.07,0-.13a1.55,1.55,0,0,0,0-.31Q50,16.61,49.78,17.2Zm.5,2.19a.6.6,0,0,0,.09-.4l-.08,0-.38.53v.09A.79.79,0,0,0,50.28,19.39Zm-.33.54,0,0,.27-.35-.11,0c-.14.05-.22.12-.23.22A.07.07,0,0,0,50,19.93Zm.06.63.14,0,.32-.09a.15.15,0,0,0-.07-.14s-.06,0-.06-.06.12-.26.1-.56l-.16.06s-.07.08-.15.22a.9.9,0,0,0-.13.26h0l.3-.1-.34.32ZM50,17.67l.1,0,.19-.08c.08,0,.11-.07.11-.1l0-.32A1.26,1.26,0,0,0,50,17.67Zm.5,0-.09,0L50,18.2v.07A.59.59,0,0,0,50.45,17.64Z"/><path class="cls-2" d="M53.1,22.07a.59.59,0,0,0-.14.06l-.09.06a.53.53,0,0,1-.22.12c-.09,0-.14,0-.14,0l-.13-2.39a1.06,1.06,0,0,0-.05-.23.9.9,0,0,1,0-.15,4,4,0,0,1,0-.47c0-.18,0-.27,0-.46a4.15,4.15,0,0,0-.06-.48,6,6,0,0,1-.07-.73c0-.36,0-.58,0-.65l-.08,0c0-.07,0-.15,0-.25a2.32,2.32,0,0,0,0-.24,2.25,2.25,0,0,1-.09-.37.38.38,0,0,1,.08-.35.91.91,0,0,1,.41-.19l.27-.07a.19.19,0,0,1,.12,0,.92.92,0,0,1,.13.14,7.71,7.71,0,0,1,.75-.52,2.41,2.41,0,0,1,.72-.29,2,2,0,0,1,1.79.33A2.08,2.08,0,0,1,57,16.48l0,.46a2.7,2.7,0,0,1-.07,1,2.2,2.2,0,0,1-.32.52,4.31,4.31,0,0,1-.52.6,1,1,0,0,1-.47.3l.26-.28s0,0,0,0a2,2,0,0,0-.27.2l-.31.26s0,.05-.06.05a.37.37,0,0,1-.14,0H55a.49.49,0,0,0-.3.23H54a.25.25,0,0,0-.22-.1,1.14,1.14,0,0,0-.28,0l-.16.07c-.07,0-.1.07-.1.08,0,.83.07,1.25.12,2.08a1,1,0,0,1,.08.35c0,.05,0,.1-.17.16a2.26,2.26,0,0,1-.55.21l-.28.08v-.2C52.9,22.37,53.11,22.22,53.1,22.07Zm-.71-4.88s.07,0,.09,0,0,0,.06-.07a.13.13,0,0,0,0-.1l-.26.08A.22.22,0,0,0,52.39,17.19Zm0-1.25c0,.06.06.09.08.09l.13-.17a.27.27,0,0,0,.07-.13s0-.07-.11-.08h-.17l0,.07a.2.2,0,0,0,0,.08A.9.9,0,0,0,52.36,15.94Zm.51,6,0,0a.21.21,0,0,0,.21-.17l0-.27a1.22,1.22,0,0,1,0-.22A3.3,3.3,0,0,1,53,20.8c0-.16-.1-.22-.26-.17l-.09.06-.07.07.2-.06a.6.6,0,0,0-.09.15.33.33,0,0,0,0,.1,1.81,1.81,0,0,0,.12.22,1,1,0,0,0,.11.14l-.07.08c0,.21,0,.31,0,.52ZM52.61,19s-.08.07-.07.09v0l.12-.07a.41.41,0,0,0,.15-.14h0Zm-.06-.47a.41.41,0,0,0,0,.2.75.75,0,0,0,.16-.18.58.58,0,0,0,0-.21A.57.57,0,0,0,52.55,18.57Zm-.1-2.42.27-.08v-.15A.53.53,0,0,0,52.45,16.15Zm.2,3.71.19-.05c.11,0,.16-.08.16-.16a.18.18,0,0,0,0-.11.2.2,0,0,0-.1-.07A.53.53,0,0,0,52.65,19.86Zm.12.32a.35.35,0,0,0,.07.09.16.16,0,0,0,.12,0A.37.37,0,0,0,53,20c-.12,0-.2,0-.22,0a.5.5,0,0,0-.14.1A.17.17,0,0,1,52.77,20.18Zm.37-1.66a.51.51,0,0,0,0-.09s0-.05-.07-.05l-.06.05-.25.34C53,18.69,53.14,18.61,53.14,18.52Zm-.39-.74.07,0v-.13Zm.11-.84A.28.28,0,0,0,53,17a.41.41,0,0,0,.11-.23,1,1,0,0,1,.07-.21l-.27.07.06-.08h0c-.05,0-.08.06-.11.13a.39.39,0,0,0,0,.18S52.8,16.91,52.86,16.94Zm.22-.64A.8.8,0,0,0,53.5,16a3.85,3.85,0,0,0,.39-.53l.21-.3a.34.34,0,0,1,.16-.12l0,.07a.2.2,0,0,0,0,.08l0,.06,0,.05.21-.14a.7.7,0,0,0,.32-.29.41.41,0,0,0-.17,0l-.19,0a1.67,1.67,0,0,0-.6.24,2,2,0,0,0-.45.49h0s0,0,.08-.05l.1-.08v0a.32.32,0,0,1-.1.19,3.11,3.11,0,0,1-.31.29,1.73,1.73,0,0,0-.26.27A.13.13,0,0,0,53.08,16.3Zm.56,2.36a1.38,1.38,0,0,0,1.17.18,3.33,3.33,0,0,0,.62-.18.69.69,0,0,0,.37-.34.05.05,0,0,1,0,0s0-.05,0-.07a.22.22,0,0,1,0-.11.16.16,0,0,1,.08-.06.51.51,0,0,1,.08-.25.49.49,0,0,1,0-.1.23.23,0,0,0,0-.14.33.33,0,0,0,0-.14.41.41,0,0,1,0-.15.23.23,0,0,1,0-.09l0-.07s0-.07-.13-.14-.13-.12-.13-.15a.35.35,0,0,1,0-.12c0-.05,0-.08,0-.09l-.08-.14a.42.42,0,0,1-.06-.14v-.18c0-.06,0-.11-.05-.13a.56.56,0,0,0-.11-.11.23.23,0,0,1-.16-.22.59.59,0,0,1-.28,0l-.25-.09-.42.15v-.07a.3.3,0,0,0-.15.09,1.06,1.06,0,0,0-.15.15c-.13.14-.23.23-.3.24h-.07l-.18.32-.07,0s-.12.18-.19.5a2.35,2.35,0,0,0-.1.67A1.32,1.32,0,0,0,53.64,18.66Zm-.22.34a.12.12,0,0,0,0-.07.13.13,0,0,0-.09-.09.28.28,0,0,0-.13,0l.15.21S53.41,19,53.42,19Zm.41.6.26-.07v-.09C53.92,19.47,53.84,19.53,53.83,19.6Zm.92-.29a.33.33,0,0,0-.17,0,.23.23,0,0,0-.18.21l.51-.11A.83.83,0,0,0,54.75,19.31Zm.58-.17-.23,0,.14.1C55.3,19.23,55.34,19.18,55.33,19.14ZM55.09,15a.17.17,0,0,0,0,.1l.23,0a.12.12,0,0,0,0-.09.07.07,0,0,0-.08,0A.12.12,0,0,0,55.09,15Zm1,.48a.32.32,0,0,0-.07.13h.16c.11,0,.16-.05.18-.11l-.07-.06H56.2A.33.33,0,0,0,56.08,15.43Zm.1.75c.27,0,.4-.1.4-.21a.25.25,0,0,0,0-.07s0-.06-.06-.07a2.43,2.43,0,0,0-.3.17c-.11.07-.16.11-.16.14S56.09,16.19,56.18,16.18Zm.32,1.07.15.05h0s.05-.09.06-.25a2.88,2.88,0,0,0,0-.4.41.41,0,0,0,0-.18c0-.06-.06-.09-.11-.08a1.12,1.12,0,0,1-.22.19l-.12.07a.11.11,0,0,0,0,.09l.36,0s0,0,0,0,0,.06,0,.09a.35.35,0,0,1-.09.19,1.54,1.54,0,0,1-.16.18S56.43,17.23,56.5,17.25Zm.18.41v-.09l-.18.09a1.22,1.22,0,0,0-.16.14l.22.17A.33.33,0,0,0,56.68,17.66Zm-.2.68,0,.09.13-.14h-.12A.05.05,0,0,0,56.48,18.34Z"/><path class="cls-2" d="M58.63,15.75a4.25,4.25,0,0,1,.44-1.05l0,0a.87.87,0,0,0,.28-.11.46.46,0,0,1,.25-.09l.41,0a2.14,2.14,0,0,1,.62.06v.1a.92.92,0,0,1,.29,0,1.31,1.31,0,0,1,.27.06,4.06,4.06,0,0,1,.69.29c.23.13.34.25.35.35a1.06,1.06,0,0,1,.46.38,3.91,3.91,0,0,1,.36.66c0,.09.08.18.13.27a.7.7,0,0,0,.13.18l.05.91-.2,0,.06.09a3.76,3.76,0,0,1-1.34-.35l-.59-.19-.75-.2-.69-.21a.09.09,0,0,0-.07-.08h-.12a3.15,3.15,0,0,0,.12.68,1.37,1.37,0,0,0,.29.58,2.17,2.17,0,0,0,.51.33l.27.15a1,1,0,0,0,.36.23,3.38,3.38,0,0,0,.57.11l.35,0a3.19,3.19,0,0,1,.87.23.41.41,0,0,1,.21.22,1.14,1.14,0,0,1,.07.34.41.41,0,0,1,0,.23s-.06,0-.12,0A.15.15,0,0,0,63,20a9.14,9.14,0,0,0-1.32-.31l-.85-.25a4.3,4.3,0,0,1-.69-.26,2.2,2.2,0,0,1-.73-.59,4.29,4.29,0,0,1-.64-.91,2,2,0,0,1-.28-.82A3.66,3.66,0,0,1,58.63,15.75ZM59,17.1a.76.76,0,0,0,.21,0,.12.12,0,0,0,.1-.12.13.13,0,0,0,0-.07.26.26,0,0,1,0-.1,1.56,1.56,0,0,1,.07-.17.41.41,0,0,0,0-.22.17.17,0,0,0,0-.13l-.12-.08c-.05,0-.07-.05-.07-.08s0-.09.06-.19a.62.62,0,0,0,.06-.19c0-.07.06-.18.19-.33l.18-.22a.32.32,0,0,0,.06-.18l.12,0,.16.05s0,0,0-.05,0-.06,0-.07a1.6,1.6,0,0,1,.36,0,3,3,0,0,0,.39.07c.09,0,.14,0,.14,0a.94.94,0,0,0-.24-.13,1.3,1.3,0,0,0-.29-.08,1.11,1.11,0,0,0-1.15.29,1.69,1.69,0,0,0-.33,1.18l.36,0v.06l-.4.35V17l.13-.06-.12.19Zm0,.15a.4.4,0,0,0,0,.26.24.24,0,0,0,.22-.08.29.29,0,0,0,.09-.21Q59.09,17.19,59,17.25Zm.21.27a.41.41,0,0,0-.08.25.67.67,0,0,0,.42,0,.93.93,0,0,0-.12-.19l-.11-.17Zm.11.55c0,.07,0,.12,0,.15a.33.33,0,0,0,.23-.37c-.21,0-.33,0-.38.09A.34.34,0,0,1,59.35,18.07Zm.62.31,0,0-.41-.11-.07,0,.37.32C59.93,18.49,60,18.42,60,18.38Zm-.41-2a.19.19,0,0,0-.07.16.27.27,0,0,0,.2,0,.26.26,0,0,0,0-.18A.2.2,0,0,0,59.56,16.35Zm.73-.16,1,.29.55.14a3.34,3.34,0,0,1,.52.15.94.94,0,0,0-.09-.25c-.06-.13-.11-.2-.14-.21h0a1.39,1.39,0,0,0-.53-.55,2.84,2.84,0,0,0-.73-.36,1.27,1.27,0,0,0-.78,0,.81.81,0,0,0-.46.51C59.66,16,59.88,16.09,60.29,16.19Zm-.47.31-.16.14H60a1.09,1.09,0,0,0,.31-.08L60,16.43h0S59.89,16.45,59.82,16.5ZM60,18.73l0,0a.68.68,0,0,0,.23-.05c.07,0,.11-.07.11-.09a.12.12,0,0,0,0-.09l-.06-.05a.31.31,0,0,0-.22.05c-.07,0-.11.11-.1.15Zm.54.32.07.07a.49.49,0,0,0,.3,0,.22.22,0,0,0,.11-.22c-.28-.07-.43-.07-.42,0a.19.19,0,0,0,0-.1.11.11,0,0,0-.06-.06s-.06,0-.14.07-.11.09-.11.11v0A1.85,1.85,0,0,1,60.55,19.05Zm.2-2.2a.22.22,0,0,0,.18,0,.16.16,0,0,0,.06-.14c-.38-.1-.59-.09-.64,0A2.2,2.2,0,0,0,60.75,16.85Zm.36,2.38a2.55,2.55,0,0,0,.45.09l.33.06a3,3,0,0,1,.62.15.76.76,0,0,1,.14.11.85.85,0,0,0,.25.05.1.1,0,0,0,.11-.11,2.44,2.44,0,0,0-.62-.18l-.19,0a1.09,1.09,0,0,1-.26-.05l-.48-.14a1.84,1.84,0,0,0-.36-.06l-.06.05C61.08,19.21,61.1,19.23,61.11,19.23Zm.32-2.33a1.18,1.18,0,0,0-.31,0q-.15,0-.15.09v0l.41.09c.25.06.39.05.43,0l-.32-.11Zm.75-1a1.32,1.32,0,0,0,.28.28l.18,0c.08,0,.12,0,.11,0a.85.85,0,0,0,0-.21.88.88,0,0,1-.06-.16s0,0,0,0l-.08,0a1.19,1.19,0,0,1-.22-.17.4.4,0,0,1-.13-.22c-.22-.08-.33-.17-.34-.27a.18.18,0,0,0-.08,0c-.05,0-.13,0-.25,0a.37.37,0,0,1-.12-.07.38.38,0,0,0-.15-.09l-.14,0a1.09,1.09,0,0,1,.11.16.49.49,0,0,0,.15.18s0,0,.09,0h.1a1.74,1.74,0,0,1,.18.12,1,1,0,0,0,.25.13C62,15.65,62,15.76,62.18,15.92Zm.52,1.32a1.28,1.28,0,0,1-.33-.1,1,1,0,0,0-.27-.06c-.06,0-.09,0-.09.1l.6.22c.14,0,.23,0,.25,0a.52.52,0,0,0,.17.16.63.63,0,0,0-.05-.21.58.58,0,0,1,0-.17s0,0,0-.05a.11.11,0,0,0,.07,0s0-.07,0-.16a.56.56,0,0,0-.28-.53c-.08,0-.13,0-.14,0a.35.35,0,0,0,0,.2c.1.27.15.42.17.45v0C62.81,17.19,62.77,17.24,62.7,17.24Z"/></svg>