<svg id="Lag_1" data-name="Lag 1" xmlns="http://www.w3.org/2000/svg" viewBox="0 0 1000 1000"><defs><style>.cls-1{fill:#8b4d49;}.cls-2,.cls-3{fill:#fdfbe9;}.cls-3{stroke:#000;stroke-miterlimit:10;}</style></defs><title>Tegnebræt 1 kopi 14</title><path class="cls-1" d="M934.81,956.15A2870.92,2870.92,0,0,1,64.49,938.61c-6.91-1.2-11.59-7.53-10.41-14q11.25-62.1,22.38-124.22a12.14,12.14,0,0,1,14-9.72A2720.25,2720.25,0,0,0,915.28,807.2,12.16,12.16,0,0,1,929,817.47q8.55,62.52,17,125.07C946.8,949.08,941.8,955.22,934.81,956.15Z"/><path class="cls-2" d="M166.64,827.55q8.56,1.23,11.14,8.63t.8,20.37q-.45,3.24-2.75,3.57l-4.9.81a2.49,2.49,0,0,1-2.1-.69,2.64,2.64,0,0,1-.71-2.49c1.64-11.47.67-18.34-2.86-20.62q-2.46-1.71-6.4-.51t-8.74,7.27a32,32,0,0,0-6.37,14.51,8.34,8.34,0,0,0,.38,5.41q1,2,4.63,3.83l5.22,2.65q7.53,3.75,9.49,7.85,1.74,3.74.65,11.39a37.93,37.93,0,0,1-6.62,15.8,40.37,40.37,0,0,1-13.71,12.75c-5.44,3.07-10.85,4.2-16.18,3.38-10.77-1.65-14.79-10.81-12.12-27.39,0-.15,0-.3.07-.44.53-3.3,1.49-5,2.91-5.13l5.25-.73a2.16,2.16,0,0,1,2.17.53,2.75,2.75,0,0,1,.54,2.42q-1.61,10.2-1.15,15.56t3.16,7.2a9.5,9.5,0,0,0,5.45-.08c3.91-1,7.71-3.75,11.35-8.23a37.05,37.05,0,0,0,8.13-19.35q.44-3.44-3.14-6a39.9,39.9,0,0,0-5.27-2.86l-5.38-2.56a13.75,13.75,0,0,1-5.91-5.11,11.94,11.94,0,0,1-1.47-8.66,38.89,38.89,0,0,1,4-11.48,54.81,54.81,0,0,1,7.72-11.44,33.17,33.17,0,0,1,10.59-8.08A20.61,20.61,0,0,1,166.64,827.55Z"/><path class="cls-2" d="M215,833.92q-10.75,27-21.83,54,11.83-11.06,23.51-22.21a4.45,4.45,0,0,1,3.76-1l5,.6c1.39.17,2.08.71,2.08,1.64s-.62,1.92-1.85,3q-13.07,11.78-26.35,23.41Q202.4,910,205.7,926.6c.23,1.32.11,2.22-.38,2.69s-1.47.63-2.94.44l-3.68-.46a5.34,5.34,0,0,1-2.76-.9,4.34,4.34,0,0,1-1-2.49q-2.55-15.11-5-30.2-5.79,14-11.68,28-1.19,2.76-4.46,2.31l-2.34-.32a4.26,4.26,0,0,1-3.27-1.64,3.28,3.28,0,0,1-.07-3.09Q187,876.85,205,832.53a3.7,3.7,0,0,1,4.36-2.35l3,.38C214.83,830.87,215.67,832,215,833.92Z"/><path class="cls-2" d="M251.64,871.18q-11.5,29.43-23.38,58.78c-.76,1.85-2.24,2.65-4.42,2.39l-4-.48q-3.73-.45-2.64-3.35,12.06-29.29,23.74-58.68,1-2.52,4.09-2.18l4.38.49a3.45,3.45,0,0,1,2.29.87C252,869.47,252,870.19,251.64,871.18Zm-5.85-12.62a6.38,6.38,0,0,1-1.25-4.66,6.16,6.16,0,0,1,2.4-4.25,6.33,6.33,0,0,1,4.82-1.36l1.23.14a5.63,5.63,0,0,1,3.87,2.42,6.36,6.36,0,0,1,1.39,4.7,5.83,5.83,0,0,1-2.46,4.15,6.86,6.86,0,0,1-5.07,1.31l-1-.11A5.52,5.52,0,0,1,245.79,858.56Z"/><path class="cls-2" d="M289,842.2q-8,21.74-16.13,43.43l2.39-3.11a37.37,37.37,0,0,1,7.22-7.17c2.62-2,4.69-2.86,6.22-2.71l.26,0a7.48,7.48,0,0,1,3.19,1.82,21.14,21.14,0,0,1,4,4.44,15.42,15.42,0,0,1,2.5,5.48q.6,2.76-1.26,10.9c-1.25,5.42-4.09,12.55-8.57,21.38s-8.64,14.59-12.43,17.28-8.34,3.77-13.66,3.22a17,17,0,0,1-8.45-3.28,4,4,0,0,1-3.95,1.45l-2.34-.26a4.28,4.28,0,0,1-3.32-1.56,3.29,3.29,0,0,1-.16-3.08q17.71-44.58,34.56-89.38a3.68,3.68,0,0,1,4.24-2.47l3,.3Q290,839.27,289,842.2Zm-31.74,84.61q6.29,4.35,10.49,2.22t8.58-9.34a99.18,99.18,0,0,0,10.93-24.25,33.14,33.14,0,0,0,1.62-7.74,3.82,3.82,0,0,0-1.65-3.47c-1.12-.76-2.74-.46-4.87.87a31.64,31.64,0,0,0-6.86,6.34,67.46,67.46,0,0,0-7.62,11.73q-4,7.38-10.1,22.54C257.64,926.07,257.46,926.44,257.29,926.81Z"/><path class="cls-2" d="M329.18,875.05l2,.16a12.68,12.68,0,0,1,8.15,4.07A26,26,0,0,1,345,888.2a3.59,3.59,0,0,1,.13,2.2,2.56,2.56,0,0,1-1.37,1.89l-4.2,1.93a3.25,3.25,0,0,1-2.37.52,1.86,1.86,0,0,1-1.51-1c-.22-.53-.59-1.53-1.09-3a25.87,25.87,0,0,0-1.29-3.23,9.58,9.58,0,0,0-1.93-2.34,6.2,6.2,0,0,0-3.2-1.64q-3.34.36-6.65,3.82c-2.22,2.3-3.51,5.66-3.9,10.09-.16,1.91.18,3.3,1,4.14a11.7,11.7,0,0,0,4.94,2.28l3.77,1.09q8.14,2.4,7.21,13.9c-.36,4.51-2.58,9.62-6.69,15.29a22.71,22.71,0,0,1-7.6,6.51,17.12,17.12,0,0,1-9.81,2.06l-.94-.08a14,14,0,0,1-9-4.31,20.65,20.65,0,0,1-5.09-7.62c-.87-2.5-.7-4.3.47-5.39l3.23-2.09a3.93,3.93,0,0,1,3.17-.9c1.05.2,1.71,1,2,2.52a13.24,13.24,0,0,0,2.86,5.48q2.5,3.24,4.83,3.64a11,11,0,0,0,7.56-4,14.82,14.82,0,0,0,3.78-8.89q.44-5.14-.5-6.7t-4.32-2.62l-2.94-.89q-5.26-1.68-7.14-4.88c-1.26-2.12-1.72-5-1.41-8.46a24.85,24.85,0,0,1,3.83-10.7,28,28,0,0,1,8.39-8.79A15.44,15.44,0,0,1,329.18,875.05Z"/><path class="cls-2" d="M364,882.45a17.54,17.54,0,0,1,6-3.22,12.6,12.6,0,0,1,6-.38,14.28,14.28,0,0,1,5.48,2.38,27.15,27.15,0,0,1,6.11,5.55q2.46,3.08.77,4.77l-2.47,2.35q-2.44,2.1-4.13.39l-1.48-1.67c-.86-1-1.59-1.76-2.17-2.35-1.82-1.71-3.54-2.48-5.13-2.33-3.25.38-6.86,3.5-10.89,9.35a73.07,73.07,0,0,0-9.22,18.31c-2.12,6.36-2.94,11.78-2.42,16.28.1,1,.88,2,2.36,3a6,6,0,0,0,3.36,1.37q4.39-1.93,9.8-7.23a2.93,2.93,0,0,1,2.08-1,5.74,5.74,0,0,1,2.28,1l2,1.41c1,.67,1.39,1.42,1.06,2.26-.92,2.38-3.56,5.07-7.95,8s-7.53,4.63-9.4,5-4.58-.52-8.11-2.58-5.68-4-6.44-5.75q-2.34-6.29-.39-15.18a85,85,0,0,1,5.63-17,56.44,56.44,0,0,1,6.89-12.06q3.21-3.91,5.36-6.17A47.17,47.17,0,0,1,364,882.45Z"/><path class="cls-2" d="M422.24,884.54c.58-2,1.66-2.94,3.23-2.87l3.1,0a4,4,0,0,1,3.36,1.44,3.57,3.57,0,0,1,.1,3.47q-9.27,25.86-18.86,51.67A37.49,37.49,0,0,0,422,930q1.57-2,3.46-.73l3.17,2.26c1.39,1,1.55,2.06.52,3.3a63.47,63.47,0,0,1-10.81,9.28,30.63,30.63,0,0,1-11.49,4.33,2.12,2.12,0,0,1-2.41-1.54c-.74-2.48-1.47-5-2.21-7.44A36.16,36.16,0,0,1,396.6,945c-2.23,1.76-4.14,2.59-5.71,2.5h-.27a7.65,7.65,0,0,1-3.3-1.71,16.49,16.49,0,0,1-3.44-3.26c-.81-1.08-1.36-1.84-1.67-2.29a15.39,15.39,0,0,1-1-1.7,7.81,7.81,0,0,1-.75-2,19.68,19.68,0,0,1-.32-2.27,24,24,0,0,1,.55-6.58,110.4,110.4,0,0,1,8.42-24q6.24-13.41,11.62-17.82a18.44,18.44,0,0,1,13.15-4A16.54,16.54,0,0,1,422.24,884.54Zm-2.41,7.26c-4.23-2.6-7.68-3.14-10.36-1.59s-5.35,4.78-8,9.68a106.84,106.84,0,0,0-10,24.74,31.48,31.48,0,0,0-1.31,7.79,3.87,3.87,0,0,0,1.84,3.41q1.75,1.06,4.86-1.06a31.31,31.31,0,0,0,6.62-6.64,63.34,63.34,0,0,0,7-12Q414,908.66,419.83,891.8Z"/><path class="cls-2" d="M441.24,949.57l-3.57-.15a3.39,3.39,0,0,1-2.52-.94,2.15,2.15,0,0,1-.37-2.2q8.72-26.89,17.13-53.86l-7.58-.29c-.93,0-1.52-.29-1.79-.75a3.44,3.44,0,0,1,.14-2.46l1.14-3.49a2.78,2.78,0,0,1,3.06-2.38l7.89.3c.62-2,1.24-4,1.87-6q5.58-17.9,15.48-24.44a17.76,17.76,0,0,1,5.28-2.31,9.39,9.39,0,0,1,4-.44l1.78.44,8.07,2.32q4.26,1.19,2,4.92l-1.77,3.1c-.64,1.23-2.22,1.4-4.72.53l-8.52-3.12c-4.63,3.46-8.37,9.91-11.28,19.35q-.92,3-1.85,6l9.74.3c1,0,1.66.26,1.95.7a2.88,2.88,0,0,1,0,2.24c-.36,1.13-.72,2.25-1.09,3.37a3.54,3.54,0,0,1-3.72,2.78l-9.7-.31q-8.34,27-17,54.05A3.7,3.7,0,0,1,441.24,949.57Z"/><path class="cls-2" d="M481.21,932.89q-1.15,5.48-.08,7.73a5.19,5.19,0,0,0,3.54,2.88c3.44-1.11,7.7-4.28,12.73-9.52a2,2,0,0,1,2.75-.2l2.58,1.59a2.62,2.62,0,0,1,1.14,1.4,1.72,1.72,0,0,1,0,1.51q-2.65,4.69-9.87,9.9t-11.54,4.24q-9.71-2.5-11.14-10.06-1.08-6,1-15.94A89,89,0,0,1,479.52,906c5-10.25,10.45-16.68,16.57-19.28q7.25-3.12,13.15-.45T515,899.09a24.7,24.7,0,0,1-3.18,11.56c-3.7,6.73-10.17,12.59-19.43,17.51A66.45,66.45,0,0,1,481.21,932.89Zm2-8.61c9.36-3.6,15.76-8.7,19.21-15.21a22.14,22.14,0,0,0,2.72-9.89c.06-3.25-.87-4.89-2.81-4.93-4.23-.08-7.93,3-11.16,9.38A111,111,0,0,0,483.2,924.28Zm39.12-63.51c1,0,1.57.31,1.82.89s-.06,1.4-.95,2.46q-5.88,5.89-11.83,11.76a5,5,0,0,1-3.77,1.54l-2.82-.06c-.74,0-1.2-.26-1.36-.76a1,1,0,0,1,.15-1.12q4.29-6.3,8.55-12.61a4.68,4.68,0,0,1,4.21-2.18Z"/><path class="cls-2" d="M592,855.18q8.65-.1,12.37,6.81c2.46,4.61,3.79,11.28,3.94,20q.06,3.27-2.17,4l-4.72,1.56a2.53,2.53,0,0,1-2.18-.36,2.63,2.63,0,0,1-1.09-2.35q-.24-17.37-6-19.93c-1.79-.87-3.93-.71-6.41.5s-5,4-7.52,8.53a32.1,32.1,0,0,0-4,15.32,8.33,8.33,0,0,0,1.21,5.28q1.34,1.83,5.18,3.07l5.57,1.81c5.36,1.7,8.9,3.78,10.61,6.28q2.3,3.44,2.41,11.16a37.82,37.82,0,0,1-4.1,16.63,40.59,40.59,0,0,1-11.59,14.73C578.48,952,573.31,954,567.92,954c-10.9,0-16.31-8.39-16.24-25.18v-.45c0-3.34.71-5.17,2.09-5.51l5.07-1.54a2.15,2.15,0,0,1,2.24.19,2.75,2.75,0,0,1,.9,2.3q0,10.33,1.27,15.55T567.5,946a9.55,9.55,0,0,0,5.38-.93c3.71-1.6,7-4.9,10-9.88a37.11,37.11,0,0,0,5-20.38c-.07-2.31-1.42-4.13-4-5.48a42.46,42.46,0,0,0-5.66-2l-5.72-1.69a13.77,13.77,0,0,1-6.64-4.14,12,12,0,0,1-2.79-8.33,39.2,39.2,0,0,1,2.19-12,55.36,55.36,0,0,1,5.87-12.49,33.18,33.18,0,0,1,9.22-9.62A20.69,20.69,0,0,1,592,855.18Z"/><path class="cls-2" d="M608.87,932.39q.38-17.71,7-30.61a65.55,65.55,0,0,1,4.73-8.28,39.14,39.14,0,0,1,4.51-5.14,18.8,18.8,0,0,1,13.38-5.43q6.78.12,10.74,6.27c1.94,2.8,2.91,7.55,2.88,14.24a69.54,69.54,0,0,1-2.9,19.73,74.89,74.89,0,0,1-6.66,16.22c-5,8.58-11.72,12.85-20,12.79a12.27,12.27,0,0,1-8.23-3.48,15.27,15.27,0,0,1-4-6.37A26.82,26.82,0,0,1,608.87,932.39Zm23.45,4.73a58.1,58.1,0,0,0,9-31.69q0-7.71-1.12-10.3a4.1,4.1,0,0,0-4.14-2.6,6.94,6.94,0,0,0-5.45,2.9,36.13,36.13,0,0,0-4.62,7.66A66,66,0,0,0,620,930.88q0,11.86,4.56,12.08C627.21,943,629.82,941,632.32,937.12Z"/><path class="cls-2" d="M685.46,852.26q-6,28.5-12.31,57,9.79-12.91,19.42-25.91a4.49,4.49,0,0,1,3.56-1.59l5-.25c1.41-.08,2.19.34,2.35,1.25a4.28,4.28,0,0,1-1.32,3.25q-10.9,13.83-22,27.58,6,15.81,12.06,31.6c.46,1.27.49,2.17.09,2.73s-1.35.86-2.83.93l-3.71.17a5.26,5.26,0,0,1-2.89-.41,4.37,4.37,0,0,1-1.41-2.28q-5.1-14.44-10.1-28.9Q668,932.18,664.59,947c-.47,1.94-1.8,2.95-4,3l-2.36.08a4.3,4.3,0,0,1-3.51-1.06,3.28,3.28,0,0,1-.61-3q11.11-46.68,21.33-93.43c.43-1.94,1.74-3,3.91-3.06l3.06-.14Q686,849.21,685.46,852.26Z"/><path class="cls-2" d="M726,897.73c5.33-9.58,9.49-15.52,12.56-17.82,1-.8,2.88-1.28,5.59-1.47l1.32-.09c2.59-.17,3.55.75,2.9,2.76a11.36,11.36,0,0,1-3,4.16,69.38,69.38,0,0,0-6.7,8.32c-2.76,3.87-4.12,6.35-4.05,7.46.15,2.3,1.4,4.39,3.79,6.25a1.16,1.16,0,0,1,.59,1.37,1.66,1.66,0,0,1-1.37,1.05L732.41,911a4.64,4.64,0,0,1-3.36-.27,12.66,12.66,0,0,1-3.09-3.77c-.42-.63-.83-1.27-1.25-1.91q-4.11,19.77-8.37,39.54-.66,2.93-4,3.11l-4,.22q-3.78.2-3.18-2.85,6.89-30.93,13.39-61.88.57-2.67,3.6-2.85l4.15-.25a3.4,3.4,0,0,1,2.41.46c.42.38.53,1.1.32,2.14Q727.51,890.19,726,897.73Z"/><path class="cls-2" d="M779.36,878.86c.32-2,1.28-3.13,2.85-3.26l3.09-.38a4.11,4.11,0,0,1,3.52,1,3.56,3.56,0,0,1,.55,3.43q-5.91,26.85-12.15,53.68A37.48,37.48,0,0,0,785,924q1.32-2.16,3.34-1.17l3.45,1.84q2.26,1.16.94,3.2a62.5,62.5,0,0,1-9.57,10.59,30.55,30.55,0,0,1-10.87,5.77,2,2,0,0,1-1.61-.13,2,2,0,0,1-1-1.08l-3.15-7.1a36.39,36.39,0,0,1-4.94,6.15c-2,2-3.8,3.1-5.37,3.21l-.27,0a7.53,7.53,0,0,1-3.5-1.27,16.16,16.16,0,0,1-3.84-2.79c-.94-1-1.6-1.65-2-2a16.51,16.51,0,0,1-1.22-1.56,7.86,7.86,0,0,1-1-1.89,20.6,20.6,0,0,1-.61-2.21,24,24,0,0,1-.29-6.6,109.45,109.45,0,0,1,5.3-24.88q4.49-14.09,9.28-19.17a18.57,18.57,0,0,1,12.56-5.67A16.73,16.73,0,0,1,779.36,878.86Zm-1.47,7.51c-4.55-2-8-2.12-10.51-.24s-4.72,5.42-6.75,10.63a107.68,107.68,0,0,0-6.76,25.81,31.41,31.41,0,0,0-.3,7.9,3.9,3.9,0,0,0,2.27,3.15q1.88.82,4.71-1.69a31.4,31.4,0,0,0,5.73-7.43,62.89,62.89,0,0,0,5.44-12.79C773.4,906.46,775.48,898,777.89,886.37Z"/><path class="cls-2" d="M821.64,852.2q-1.68,10.34-3.4,20.68l7.1-.68a2.35,2.35,0,0,1,2,.45,2.73,2.73,0,0,1,.21,2.23c-.19,1.16-.39,2.32-.59,3.47-.39,2-1.46,3-3.22,3.21l-7.07.68q-4.65,27.87-9.6,55.73-.55,2.94-3.86,3.24l-2.63.22a3.68,3.68,0,0,1-3.23-.94,3.53,3.53,0,0,1-.76-3q4.93-27.16,9.59-54.33l-5.28.47a2,2,0,0,1-1.87-.51,3.38,3.38,0,0,1-.18-2.47l.75-3.6a3,3,0,0,1,2.74-2.76l5.47-.49q1.75-10.4,3.46-20.79.53-3,3.79-3.25l3.32-.32C820.86,849.25,821.93,850.15,821.64,852.2Z"/><path class="cls-2" d="M835.46,920.11c-.32,3.73,0,6.29.88,7.68a5.19,5.19,0,0,0,3.9,2.41c3.28-1.53,7.12-5.21,11.48-11a2,2,0,0,1,2.72-.54l2.77,1.25a2.64,2.64,0,0,1,1.31,1.25,1.66,1.66,0,0,1,.19,1.49q-2,5-8.59,11.06t-11,5.66q-10-1.26-12.36-8.58-1.83-5.82-1-16a89.12,89.12,0,0,1,4.59-21.19q5.46-16.18,14.1-21.21,6.84-4,13-2.1c4.14,1.27,6.6,5.27,7.34,12a24.62,24.62,0,0,1-1.72,11.87Q858.9,904.93,846,914A67,67,0,0,1,835.46,920.11Zm.89-8.79c8.88-4.75,14.63-10.61,17.25-17.5a22.12,22.12,0,0,0,1.48-10.16c-.34-3.23-1.49-4.74-3.42-4.53q-6.33.68-9.95,10.71A110.68,110.68,0,0,0,836.35,911.32Z"/><path class="cls-2" d="M889.6,864.36l2-.24a12.81,12.81,0,0,1,8.85,2.33,26,26,0,0,1,7.4,7.6,3.5,3.5,0,0,1,.57,2.13,2.55,2.55,0,0,1-1,2.12c-1.24.92-2.5,1.83-3.75,2.74a3.31,3.31,0,0,1-2.22,1,1.86,1.86,0,0,1-1.7-.7c-.33-.47-.89-1.37-1.67-2.7a27.7,27.7,0,0,0-1.92-2.9,9.73,9.73,0,0,0-2.38-1.9,6.29,6.29,0,0,0-3.49-1q-3.21,1-5.78,5.09t-1.81,10.67c.22,1.91.84,3.19,1.86,3.85a12,12,0,0,0,5.32,1.24l3.94.3c5.67.48,9,4.52,9.91,12.16.54,4.5-.62,9.94-3.53,16.33a22.75,22.75,0,0,1-6.18,7.91,17.29,17.29,0,0,1-9.25,4l-.94.11a14.22,14.22,0,0,1-9.78-2.41,20.84,20.84,0,0,1-6.55-6.43c-1.35-2.28-1.56-4.07-.61-5.38l2.75-2.69a4,4,0,0,1,2.95-1.53c1.08,0,1.9.68,2.43,2.08a13.33,13.33,0,0,0,3.93,4.78c2.08,1.79,3.91,2.65,5.49,2.6a11.1,11.1,0,0,0,6.64-5.47,14.77,14.77,0,0,0,1.94-9.46c-.4-3.42-1-5.57-1.84-6.46s-2.43-1.46-4.79-1.7l-3.07-.28c-3.69-.39-6.36-1.5-8-3.34s-2.69-4.5-3.08-8a24.57,24.57,0,0,1,1.62-11.25,28,28,0,0,1,6.5-10.31A15.61,15.61,0,0,1,889.6,864.36Z"/><path class="cls-3" d="M98,814.62C168,725.23,249.74,610,321.86,485.39c79.72-137.69,139.3-262.6,183.89-376.9,32.74,104.83,77.66,219.12,140.59,346.23A2405.66,2405.66,0,0,0,896.86,856.1c-106.7-26.83-237-50.21-387.51-59.7C347.43,786.19,212.83,799.3,98,814.62Z"/><line class="cls-3" x1="504.75" y1="109.26" x2="506.33" y2="10.99"/><line class="cls-3" x1="96.97" y1="815.51" x2="7.38" y2="869.63"/><line class="cls-3" x1="895.84" y1="856.99" x2="996.25" y2="918.44"/><path class="cls-1" d="M302.16,587.1h65.09q1.71-48.37,34.5-83.65L355,456.73l4.53-3.82q22.75,22.82,46.28,46.4c23.61-21.94,51.5-33.56,84.12-34.7V398h4.78a28.62,28.62,0,0,1,.55,4q.06,29.19,0,58.37v4.31q48.33,1.83,83.3,34.33L625.49,452l3.29,5.11-46,46c22.2,23.86,33.64,51.62,34.86,83.9H685v5.55H617.63c-1.24,32.34-12.69,60.19-34.68,83.78,15.54,15.53,31.06,31,46.76,46.75l-4.21,3.35-46.3-46.31c-23.87,22.15-51.57,33.66-83.88,34.86v66h-5.43V715q-48.61-1.72-83.66-34.36l-47,47c-1.46-1.78-2.53-3.07-3.62-4.41l46.59-46.58c-22.19-23.92-33.77-51.61-35-84.1H302.16Zm276.77,2.74c0-46.48-38-84.86-83.66-85.22-47.88-.38-86.11,37.77-86.44,83.75-.34,48.26,37.53,86.58,85,86.6A85.28,85.28,0,0,0,578.93,589.84ZM404,506.06c-21,22.69-32.24,49.58-33.34,81h33.91c.67,0,1.34-.12,2.21-.2a87.93,87.93,0,0,1,22.43-55.6Zm-33,86.65c-2.57,22.63,15.29,65.62,33,80.46l25.16-25a87.11,87.11,0,0,1-22.36-55.43ZM489.73,468c-31.59,1.15-58.49,12.36-80.94,33.28L434,526.53c15.5-14.52,34.25-22.46,55.75-23.78Zm-.05,208.89c-26.24-3.39-34.37-6.89-55.55-23.59l-25.23,25.1c22.61,20.79,49.4,32.07,80.78,33.09Zm5.65-174.12A86.42,86.42,0,0,1,526.2,509,87.55,87.55,0,0,1,552,525l23.89-23.81c-22.54-20.8-49.33-32-80.6-33.08Zm57.15,151.42c-16.24,14.49-35.3,22-57,22.67v34.65c31.39-1.19,58.17-12.4,80.9-33.56Zm28.07,19.32c19.15-17.72,37.27-61.89,33.08-81H581.17c-4.5,29.62-4.5,29.62-24.06,57.43Zm.38-86.63h33.29c-1.22-31.39-12.39-58.29-33.53-81l-23.78,23.75Q579.24,553.57,580.93,586.91Z"/><path class="cls-1" d="M537.61,582.82c2.39-1.13,4.48-2.34,6.72-3.14,4.58-1.63,8.29-.25,9.8,4.26a34.9,34.9,0,0,1-3.94,31.15c-2.3,3.59-6.23,4.07-10.06,2.09-2.21-1.14-3.78-3-5.9-4.82a205.69,205.69,0,0,1-9.51,23.31c-1.55,3.25-3.23,4.59-7.06,4.53-16.62-.28-33.26-.17-49.89-.07a4.33,4.33,0,0,1-4.48-2.71c-9.59-18.12-15-37.16-13.64-57.88.53-8.1.3-8.12,8.21-8.12,25.07,0,50.14.07,75.21-.08,3,0,3.87,1,4,3.69S537.41,580.11,537.61,582.82Zm14.07,11.79a20.8,20.8,0,0,0-1.34-8.63c-1-2.47-2.71-3.13-5-2.1-4.38,2-8.57,4.14-8.29,10.14a20.66,20.66,0,0,1-.87,8c-1.78,4.8,1.1,7.31,4,9.91,3.45,3.06,5.59,2.66,7.78-1.39C550.71,605.55,551.43,600.12,551.68,594.61Z"/><path class="cls-1" d="M495.51,541.42a14.54,14.54,0,0,1-.78,4.84,7.66,7.66,0,0,0-.07,6c1.42,3.49.76,6.88-.29,10.34a2.07,2.07,0,0,1-2.69,1.66c-1.9-.27-1.14-1.87-.84-2.56,1.53-3.48.09-6.87.11-10.26.05-6.33.67-12.65-.2-19a6,6,0,0,1,.65-2.44c.48-1.49.35-3.86,2.93-3,2.35.75,1,2.73.52,3.91a9.72,9.72,0,0,0,0,7.08A17,17,0,0,1,495.51,541.42Z"/><path class="cls-1" d="M511.59,542.06c-2.86,3.78,2.46,8.43-.89,12.55-.59.72.52,1.77.91,2.64,1,2.24.43,4.24-.78,6.22-.84,1.38-2.21,1.14-3.21.81s-.41-1.54,0-2.19c1-1.78.14-3.36,0-5.11-.36-4.6-.12-9.26-.3-13.91a2.59,2.59,0,0,1,3.2-2.65C511.36,540.57,511.89,540.79,511.59,542.06Z"/><path class="cls-1" d="M478.89,541.36a8.22,8.22,0,0,0-.19,8.12,3,3,0,0,1-.21,2.45c-1.3,2.25-1,4.3.06,6.54.86,1.83-.12,3.53-.94,5.18s-2.25,1.14-3.19.8c-1.25-.46-.53-1.76,0-2.48,1.05-1.54.24-2.82,0-4.36-.64-4.72.05-9.51-.14-14.29C474.19,541.18,476.34,540.22,478.89,541.36Z"/></svg>