<svg id="Lag_1" data-name="Lag 1" xmlns="http://www.w3.org/2000/svg" viewBox="0 0 1000 1000"><defs><style>.cls-1,.cls-3{fill:#fdfbe9;}.cls-1{stroke:#000;stroke-miterlimit:10;}.cls-2{fill:#8b4d49;}</style></defs><title>Tegnebræt 1 kopi 13</title><path class="cls-1" d="M934.86,956.22A2874.46,2874.46,0,0,1,64.44,938.68c-6.92-1.2-11.59-7.52-10.41-14q11.24-62.1,22.35-124.22a12.15,12.15,0,0,1,14-9.72,2724.19,2724.19,0,0,0,825,16.56A12.15,12.15,0,0,1,929,817.54q8.52,62.54,16.93,125.08C946.85,949.16,941.85,955.3,934.86,956.22Z"/><path class="cls-2" d="M166.58,827.61q8.56,1.21,11.15,8.63t.8,20.37q-.45,3.24-2.76,3.57l-4.89.81a2.49,2.49,0,0,1-2.1-.69,2.62,2.62,0,0,1-.71-2.49q2.44-17.2-2.87-20.62-2.46-1.71-6.4-.5T150.06,844a32.23,32.23,0,0,0-6.37,14.51,8.33,8.33,0,0,0,.38,5.41q1,2,4.63,3.83l5.23,2.65c5,2.51,8.19,5.11,9.49,7.85q1.74,3.74.65,11.39a37.8,37.8,0,0,1-6.62,15.8,40.5,40.5,0,0,1-13.71,12.76c-5.44,3.06-10.85,4.19-16.18,3.38-10.76-1.65-14.8-10.81-12.13-27.39,0-.15,0-.3.07-.45q.8-4.94,2.92-5.12l5.24-.74a2.16,2.16,0,0,1,2.18.54,2.76,2.76,0,0,1,.53,2.42c-1.06,6.8-1.45,12-1.14,15.55s1.35,6,3.16,7.2a9.41,9.41,0,0,0,5.45-.08q5.88-1.51,11.35-8.23a37.1,37.1,0,0,0,8.13-19.35q.44-3.43-3.14-6A40.13,40.13,0,0,0,144.9,877l-5.38-2.55a13.83,13.83,0,0,1-5.91-5.12c-1.52-2.31-2-5.19-1.46-8.66a38.56,38.56,0,0,1,4-11.48,55.47,55.47,0,0,1,7.72-11.44,33.2,33.2,0,0,1,10.59-8.08A20.63,20.63,0,0,1,166.58,827.61Z"/><path class="cls-2" d="M214.9,834Q204.15,861,193.07,888q11.85-11.06,23.52-22.22a4.44,4.44,0,0,1,3.76-1l5,.6c1.39.17,2.09.71,2.09,1.64s-.62,1.92-1.85,3q-13.06,11.76-26.36,23.41,3.18,16.6,6.47,33.2c.24,1.32.11,2.22-.38,2.7s-1.47.62-2.94.44l-3.67-.46a5.25,5.25,0,0,1-2.77-.91,4.27,4.27,0,0,1-1-2.48q-2.55-15.11-5-30.2-5.81,14-11.68,28c-.8,1.84-2.28,2.61-4.46,2.31l-2.34-.32c-1.65-.22-2.74-.77-3.27-1.64a3.28,3.28,0,0,1-.08-3.09Q187,876.9,205,832.58a3.72,3.72,0,0,1,4.36-2.35l3,.39Q216,831.07,214.9,834Z"/><path class="cls-2" d="M251.6,871.23Q240.1,900.68,228.22,930c-.76,1.84-2.24,2.64-4.42,2.38l-4-.47q-3.75-.45-2.64-3.36,12-29.28,23.73-58.67,1-2.53,4.09-2.19l4.38.5a3.4,3.4,0,0,1,2.29.86C252,869.52,252,870.24,251.6,871.23Zm-5.85-12.62A6.33,6.33,0,0,1,244.5,854a6.18,6.18,0,0,1,2.39-4.25,6.36,6.36,0,0,1,4.83-1.36l1.23.14a5.63,5.63,0,0,1,3.87,2.42,6.36,6.36,0,0,1,1.39,4.7,5.79,5.79,0,0,1-2.46,4.15,6.86,6.86,0,0,1-5.07,1.31l-1-.11A5.52,5.52,0,0,1,245.75,858.61Z"/><path class="cls-2" d="M289,842.24q-8,21.75-16.12,43.44l2.38-3.11a37.37,37.37,0,0,1,7.22-7.17c2.63-1.95,4.69-2.86,6.22-2.71l.27,0a7.37,7.37,0,0,1,3.19,1.82,20.65,20.65,0,0,1,4,4.44,15.51,15.51,0,0,1,2.5,5.48c.39,1.84,0,5.47-1.26,10.9s-4.09,12.55-8.57,21.38-8.63,14.58-12.42,17.28-8.35,3.77-13.67,3.22a17,17,0,0,1-8.45-3.28,4,4,0,0,1-3.95,1.45l-2.34-.26a4.29,4.29,0,0,1-3.32-1.55,3.29,3.29,0,0,1-.16-3.09q17.71-44.58,34.55-89.38a3.68,3.68,0,0,1,4.24-2.47l3,.3Q290,839.32,289,842.24Zm-31.73,84.62c4.19,2.9,7.69,3.63,10.49,2.22s5.68-4.52,8.58-9.34a99.55,99.55,0,0,0,10.93-24.25,33.14,33.14,0,0,0,1.62-7.74,3.85,3.85,0,0,0-1.65-3.48c-1.12-.75-2.75-.46-4.87.88a31.42,31.42,0,0,0-6.86,6.34,67.71,67.71,0,0,0-7.62,11.72q-4,7.39-10.1,22.55C257.6,926.12,257.43,926.49,257.26,926.86Z"/><path class="cls-2" d="M329.15,875.09l2,.17a12.71,12.71,0,0,1,8.16,4.06,26.21,26.21,0,0,1,5.68,8.93,3.57,3.57,0,0,1,.13,2.19,2.55,2.55,0,0,1-1.38,1.89l-4.2,1.93a3.19,3.19,0,0,1-2.36.52,1.86,1.86,0,0,1-1.51-1c-.23-.53-.59-1.52-1.09-3a23.9,23.9,0,0,0-1.3-3.22,9.34,9.34,0,0,0-1.92-2.35,6.42,6.42,0,0,0-3.21-1.64c-2.23.24-4.44,1.52-6.65,3.82s-3.51,5.66-3.89,10.09c-.17,1.92.17,3.3,1,4.15a11.89,11.89,0,0,0,4.94,2.28l3.78,1.08q8.13,2.4,7.21,13.9-.54,6.78-6.69,15.29a22.83,22.83,0,0,1-7.6,6.52,17.14,17.14,0,0,1-9.81,2.06l-.94-.08a14.18,14.18,0,0,1-9.05-4.31,20.78,20.78,0,0,1-5.09-7.62c-.87-2.5-.7-4.3.48-5.4l3.22-2.08a3.92,3.92,0,0,1,3.18-.91c1.06.21,1.7,1,1.95,2.53a13.25,13.25,0,0,0,2.87,5.47q2.5,3.25,4.83,3.64a11,11,0,0,0,7.56-4,14.85,14.85,0,0,0,3.78-8.88q.43-5.15-.5-6.71c-.63-1-2.07-1.91-4.33-2.61l-2.93-.9q-5.26-1.67-7.15-4.87c-1.26-2.13-1.72-5-1.4-8.46a24.65,24.65,0,0,1,3.82-10.7,28.27,28.27,0,0,1,8.39-8.8A15.52,15.52,0,0,1,329.15,875.09Z"/><path class="cls-2" d="M363.93,882.49a17.54,17.54,0,0,1,6-3.22,12.73,12.73,0,0,1,6-.38,14.28,14.28,0,0,1,5.48,2.38,27.42,27.42,0,0,1,6.12,5.55q2.46,3.07.76,4.77l-2.47,2.35q-2.44,2.1-4.13.39l-1.48-1.67c-.86-1-1.58-1.76-2.16-2.35-1.84-1.7-3.54-2.48-5.14-2.33-3.25.39-6.86,3.51-10.89,9.35a73.07,73.07,0,0,0-9.22,18.31c-2.12,6.36-2.94,11.79-2.42,16.28.1,1,.88,2.05,2.36,3s2.6,1.44,3.37,1.36a35.11,35.11,0,0,0,9.79-7.23,3,3,0,0,1,2.08-1,5.62,5.62,0,0,1,2.28,1l2,1.41c1,.67,1.38,1.42,1.05,2.26-.92,2.38-3.56,5.07-8,8.05s-7.52,4.63-9.4,5-4.58-.52-8.11-2.59-5.68-4-6.44-5.75q-2.34-6.29-.39-15.17a85.12,85.12,0,0,1,5.63-17,56.44,56.44,0,0,1,6.89-12.06c2.14-2.61,3.92-4.66,5.35-6.17A50.67,50.67,0,0,1,363.93,882.49Z"/><path class="cls-2" d="M422.23,884.58c.57-2,1.66-2.94,3.23-2.87l3.1,0a4.06,4.06,0,0,1,3.36,1.44,3.6,3.6,0,0,1,.1,3.47q-9.27,25.86-18.87,51.67a37.32,37.32,0,0,0,8.88-8.23q1.58-2,3.46-.73l3.17,2.26q2.08,1.44.52,3.3a63.47,63.47,0,0,1-10.81,9.28,30.47,30.47,0,0,1-11.49,4.33,2,2,0,0,1-1.57-.34,2,2,0,0,1-.84-1.2c-.74-2.48-1.47-5-2.21-7.44a35.71,35.71,0,0,1-5.67,5.46c-2.23,1.76-4.14,2.59-5.71,2.5h-.27a7.59,7.59,0,0,1-3.3-1.71,16.24,16.24,0,0,1-3.44-3.26c-.81-1.07-1.37-1.84-1.68-2.28a17.52,17.52,0,0,1-1-1.7,8,8,0,0,1-.75-2,22.14,22.14,0,0,1-.32-2.27,24.06,24.06,0,0,1,.56-6.58,109.79,109.79,0,0,1,8.41-24q6.24-13.39,11.63-17.82a18.49,18.49,0,0,1,13.14-4A16.54,16.54,0,0,1,422.23,884.58Zm-2.41,7.26c-4.23-2.6-7.68-3.14-10.36-1.59s-5.36,4.78-8,9.68a107.28,107.28,0,0,0-10,24.74,31.48,31.48,0,0,0-1.31,7.79,3.9,3.9,0,0,0,1.84,3.42c1.17.71,2.8.35,4.87-1.07a31.31,31.31,0,0,0,6.62-6.64,63,63,0,0,0,7-12C412.81,911.19,416,903.08,419.82,891.84Z"/><path class="cls-2" d="M441.23,949.61l-3.57-.15a3.42,3.42,0,0,1-2.52-.94,2.17,2.17,0,0,1-.37-2.2q8.72-26.9,17.14-53.86l-7.59-.29c-.93,0-1.52-.29-1.79-.75a3.38,3.38,0,0,1,.14-2.46l1.14-3.49a2.79,2.79,0,0,1,3.06-2.38l7.89.3c.62-2,1.25-4,1.87-6q5.6-17.89,15.49-24.44a17.56,17.56,0,0,1,5.27-2.31,9.43,9.43,0,0,1,4-.44l1.77.44,8.08,2.32q4.26,1.18,2,4.92l-1.77,3.1c-.64,1.23-2.22,1.4-4.72.53l-8.53-3.12q-6.93,5.19-11.27,19.35c-.62,2-1.23,4-1.85,6l9.73.3a2.35,2.35,0,0,1,2,.7,2.83,2.83,0,0,1,0,2.24c-.37,1.13-.73,2.25-1.09,3.37a3.55,3.55,0,0,1-3.72,2.78l-9.7-.31q-8.35,27-17,54A3.7,3.7,0,0,1,441.23,949.61Z"/><path class="cls-2" d="M481.21,932.93c-.77,3.66-.81,6.23-.08,7.73a5.19,5.19,0,0,0,3.54,2.88q5.16-1.66,12.73-9.52a2,2,0,0,1,2.75-.2l2.58,1.59a2.62,2.62,0,0,1,1.14,1.4,1.69,1.69,0,0,1,0,1.51q-2.65,4.7-9.87,9.9c-4.82,3.46-8.68,4.87-11.54,4.24q-9.71-2.51-11.14-10.06c-.73-4-.38-9.32,1-15.95A89.13,89.13,0,0,1,479.52,906q7.41-15.37,16.57-19.28,7.25-3.11,13.15-.45T515,899.13a24.63,24.63,0,0,1-3.18,11.55q-5.55,10.11-19.43,17.52A67.29,67.29,0,0,1,481.21,932.93Zm2-8.61c9.36-3.61,15.76-8.7,19.22-15.21a22.14,22.14,0,0,0,2.72-9.89q.11-4.87-2.81-4.93-6.33-.12-11.16,9.38A111.68,111.68,0,0,0,483.19,924.32Zm39.14-63.51c.95,0,1.56.31,1.81.89s-.06,1.4-.94,2.46q-5.9,5.9-11.84,11.76a4.94,4.94,0,0,1-3.76,1.54l-2.83-.06c-.74,0-1.2-.26-1.36-.76a1,1,0,0,1,.15-1.12q4.31-6.3,8.55-12.61a4.67,4.67,0,0,1,4.22-2.18Z"/><path class="cls-2" d="M592,855.22q8.65-.11,12.36,6.81c2.47,4.61,3.8,11.28,3.95,20q.06,3.27-2.17,4l-4.72,1.56a2.52,2.52,0,0,1-2.18-.35,2.64,2.64,0,0,1-1.09-2.36q-.24-17.37-6-19.93c-1.8-.87-3.93-.71-6.4.5s-5,4-7.53,8.53a32.1,32.1,0,0,0-4,15.32,8.33,8.33,0,0,0,1.21,5.28q1.33,1.83,5.18,3.07l5.58,1.81q8,2.55,10.61,6.28,2.29,3.43,2.4,11.16T595,933.49a40.55,40.55,0,0,1-11.59,14.72Q576,954,567.92,954.05c-10.89,0-16.3-8.39-16.23-25.18v-.45c0-3.34.7-5.17,2.09-5.51l5.07-1.54a2.13,2.13,0,0,1,2.23.19,2.75,2.75,0,0,1,.91,2.3q0,10.33,1.27,15.55t4.25,6.63a9.54,9.54,0,0,0,5.38-.93c3.71-1.6,7-4.9,10-9.88a37.11,37.11,0,0,0,5-20.38q-.11-3.47-4-5.47a40.41,40.41,0,0,0-5.66-2l-5.72-1.69a13.77,13.77,0,0,1-6.64-4.14,11.92,11.92,0,0,1-2.79-8.33,39.2,39.2,0,0,1,2.19-12,55.16,55.16,0,0,1,5.87-12.49,33.18,33.18,0,0,1,9.22-9.62A20.8,20.8,0,0,1,592,855.22Z"/><path class="cls-2" d="M608.88,932.43q.38-17.71,7-30.61a65.55,65.55,0,0,1,4.73-8.28,39.14,39.14,0,0,1,4.51-5.14A18.85,18.85,0,0,1,638.55,883c4.53.08,8.1,2.17,10.75,6.27,1.93,2.8,2.9,7.55,2.87,14.25a69.64,69.64,0,0,1-2.9,19.73,75.51,75.51,0,0,1-6.66,16.21c-5.05,8.58-11.73,12.85-20,12.79a12.31,12.31,0,0,1-8.23-3.48,15.29,15.29,0,0,1-4-6.36A26.87,26.87,0,0,1,608.88,932.43Zm23.45,4.73a58.11,58.11,0,0,0,9-31.69c0-5.13-.39-8.56-1.12-10.29a4.09,4.09,0,0,0-4.14-2.61,6.92,6.92,0,0,0-5.45,2.91,35.38,35.38,0,0,0-4.62,7.65A66,66,0,0,0,620,930.92q0,11.87,4.55,12.08Q628.58,943,632.33,937.16Z"/><path class="cls-2" d="M685.5,852.3q-6,28.5-12.33,57,9.81-12.93,19.43-25.91a4.49,4.49,0,0,1,3.56-1.59l5-.26c1.4-.07,2.19.35,2.35,1.26s-.29,2-1.32,3.25q-10.91,13.83-22,27.57,6,15.82,12.06,31.61c.47,1.26.5,2.17.09,2.72s-1.34.87-2.83.94l-3.71.17a5.26,5.26,0,0,1-2.89-.42,4.37,4.37,0,0,1-1.41-2.28q-5.1-14.43-10.1-28.9Q668,932.23,664.61,947q-.71,2.93-4,3l-2.36.09c-1.66.05-2.84-.3-3.51-1.07a3.28,3.28,0,0,1-.61-3q11.11-46.66,21.33-93.42c.44-2,1.75-3,3.92-3.06l3.06-.14C684.85,849.32,685.88,850.27,685.5,852.3Z"/><path class="cls-2" d="M726,897.78c5.33-9.58,9.5-15.52,12.57-17.82,1-.8,2.87-1.28,5.59-1.47l1.32-.09q3.88-.25,2.9,2.76a11.22,11.22,0,0,1-3,4.16,68.53,68.53,0,0,0-6.69,8.32c-2.77,3.87-4.12,6.35-4.06,7.46.15,2.3,1.41,4.39,3.79,6.25a1.15,1.15,0,0,1,.59,1.37,1.65,1.65,0,0,1-1.37,1L732.44,911a4.64,4.64,0,0,1-3.36-.27A13,13,0,0,1,726,907l-1.24-1.91q-4.12,19.77-8.39,39.54-.66,2.92-4,3.11l-4,.22q-3.78.2-3.19-2.85,6.9-30.93,13.4-61.88a3.47,3.47,0,0,1,3.6-2.85l4.15-.25a3.4,3.4,0,0,1,2.41.46q.63.57.33,2.13Q727.53,890.24,726,897.78Z"/><path class="cls-2" d="M779.4,878.91c.32-2,1.28-3.13,2.86-3.25l3.08-.39a4.1,4.1,0,0,1,3.53,1,3.61,3.61,0,0,1,.55,3.43q-5.92,26.85-12.16,53.67a37.6,37.6,0,0,0,7.78-9.3c.87-1.44,2-1.84,3.34-1.17l3.45,1.83q2.26,1.17.94,3.21a63.32,63.32,0,0,1-9.57,10.59,30.84,30.84,0,0,1-10.88,5.77,2.06,2.06,0,0,1-1.6-.14,2,2,0,0,1-1-1.08l-3.15-7.1a35.9,35.9,0,0,1-4.94,6.15q-3,3-5.37,3.21l-.27,0a7.53,7.53,0,0,1-3.5-1.27,16.16,16.16,0,0,1-3.84-2.79c-.95-1-1.6-1.64-2-2a16.51,16.51,0,0,1-1.22-1.56,8.24,8.24,0,0,1-1-1.89c-.21-.63-.42-1.37-.61-2.21a24,24,0,0,1-.29-6.6,110,110,0,0,1,5.3-24.88q4.49-14.08,9.28-19.17a18.61,18.61,0,0,1,12.58-5.66A16.7,16.7,0,0,1,779.4,878.91Zm-1.47,7.52q-6.81-3.06-10.51-.25c-2.48,1.88-4.72,5.43-6.75,10.63a106.87,106.87,0,0,0-6.76,25.81,31.06,31.06,0,0,0-.31,7.9,3.89,3.89,0,0,0,2.27,3.15q1.89.83,4.71-1.69a31.54,31.54,0,0,0,5.74-7.42,64,64,0,0,0,5.44-12.79C773.44,906.51,775.52,898.07,777.93,886.43Z"/><path class="cls-2" d="M821.7,852.26q-1.69,10.34-3.41,20.68l7.1-.68a2.38,2.38,0,0,1,2,.44,2.72,2.72,0,0,1,.21,2.24c-.19,1.16-.39,2.31-.59,3.47q-.59,3-3.23,3.21l-7.06.67q-4.65,27.87-9.61,55.74c-.38,2-1.66,3-3.86,3.23l-2.63.23a3.67,3.67,0,0,1-3.24-1,3.51,3.51,0,0,1-.75-3q5-27.15,9.6-54.32l-5.29.46a2,2,0,0,1-1.87-.51,3.45,3.45,0,0,1-.18-2.46c.25-1.2.51-2.4.76-3.61a3,3,0,0,1,2.74-2.75l5.46-.49q1.75-10.39,3.48-20.79.51-3,3.78-3.25l3.32-.32C820.91,849.31,822,850.21,821.7,852.26Z"/><path class="cls-2" d="M835.5,920.17q-.46,5.6.88,7.68a5.22,5.22,0,0,0,3.9,2.42c3.29-1.54,7.13-5.21,11.49-11a2,2,0,0,1,2.72-.54l2.76,1.25a2.62,2.62,0,0,1,1.32,1.25,1.66,1.66,0,0,1,.19,1.49q-2.06,5-8.6,11.07t-11,5.65q-10-1.26-12.36-8.58-1.83-5.82-1-15.95a89.16,89.16,0,0,1,4.6-21.19c3.65-10.79,8.33-17.86,14.1-21.21q6.84-4,13.05-2.1t7.35,12a24.75,24.75,0,0,1-1.73,11.87c-2.85,7.15-8.56,13.78-17.18,19.82A66.54,66.54,0,0,1,835.5,920.17Zm.9-8.79q13.3-7.12,17.25-17.5a22.1,22.1,0,0,0,1.48-10.16c-.35-3.23-1.48-4.74-3.42-4.53q-6.33.67-10,10.71A110.68,110.68,0,0,0,836.4,911.38Z"/><path class="cls-2" d="M889.66,864.43l2-.25a12.9,12.9,0,0,1,8.86,2.34,26.17,26.17,0,0,1,7.39,7.6,3.52,3.52,0,0,1,.57,2.13,2.53,2.53,0,0,1-1,2.12c-1.24.92-2.5,1.83-3.75,2.74a3.31,3.31,0,0,1-2.23,1,1.87,1.87,0,0,1-1.69-.7c-.33-.47-.88-1.38-1.67-2.7a26,26,0,0,0-1.93-2.9,9.28,9.28,0,0,0-2.37-1.9,6.31,6.31,0,0,0-3.49-1q-3.21,1-5.78,5.08t-1.81,10.67c.22,1.92.83,3.2,1.85,3.85a11.86,11.86,0,0,0,5.33,1.25l3.94.3q8.49.7,9.9,12.16c.54,4.5-.62,9.94-3.53,16.33a22.75,22.75,0,0,1-6.18,7.91,17.28,17.28,0,0,1-9.25,4l-1,.11a14.19,14.19,0,0,1-9.77-2.4,20.75,20.75,0,0,1-6.55-6.44c-1.35-2.27-1.56-4.07-.61-5.38l2.75-2.69a4,4,0,0,1,3-1.52c1.08,0,1.89.68,2.43,2.08a13.41,13.41,0,0,0,3.93,4.78c2.08,1.78,3.91,2.65,5.49,2.59a11,11,0,0,0,6.64-5.46,14.78,14.78,0,0,0,1.94-9.46c-.4-3.42-1-5.58-1.84-6.47s-2.42-1.45-4.79-1.69l-3.07-.29c-3.69-.38-6.36-1.5-8-3.33s-2.69-4.5-3.09-8a24.74,24.74,0,0,1,1.62-11.25,28,28,0,0,1,6.51-10.3A15.59,15.59,0,0,1,889.66,864.43Z"/><path class="cls-2" d="M98,814.62C168,725.23,249.74,610,321.86,485.39c79.72-137.69,139.3-262.6,183.89-376.9,32.74,104.83,77.66,219.12,140.59,346.23A2405.66,2405.66,0,0,0,896.86,856.1c-106.7-26.83-237-50.21-387.51-59.7C347.43,786.19,212.83,799.3,98,814.62Z"/><line class="cls-2" x1="504.75" y1="109.26" x2="506.33" y2="10.99"/><line class="cls-2" x1="96.97" y1="815.51" x2="7.38" y2="869.63"/><line class="cls-2" x1="895.84" y1="856.99" x2="996.25" y2="918.44"/><path class="cls-3" d="M302.16,587.1h65.09q1.71-48.37,34.5-83.65L355,456.73l4.53-3.82q22.75,22.82,46.28,46.4c23.61-21.94,51.5-33.56,84.12-34.7V398h4.78a28.62,28.62,0,0,1,.55,4q.06,29.19,0,58.37v4.31q48.33,1.83,83.3,34.33L625.49,452l3.29,5.11-46,46c22.2,23.86,33.64,51.62,34.86,83.9H685v5.55H617.63c-1.24,32.34-12.69,60.19-34.68,83.78,15.54,15.53,31.06,31,46.76,46.75l-4.21,3.35-46.3-46.31c-23.87,22.15-51.57,33.66-83.88,34.86v66h-5.43V715q-48.61-1.72-83.66-34.36l-47,47c-1.46-1.78-2.53-3.07-3.62-4.41l46.59-46.58c-22.19-23.92-33.77-51.61-35-84.1H302.16Zm276.77,2.74c0-46.48-38-84.86-83.66-85.22-47.88-.38-86.11,37.77-86.44,83.75-.34,48.26,37.53,86.58,85,86.6A85.28,85.28,0,0,0,578.93,589.84ZM404,506.06c-21,22.69-32.24,49.58-33.34,81h33.91c.67,0,1.34-.12,2.21-.2a87.93,87.93,0,0,1,22.43-55.6Zm-33,86.65c-2.57,22.63,15.29,65.62,33,80.46l25.16-25a87.11,87.11,0,0,1-22.36-55.43ZM489.73,468c-31.59,1.15-58.49,12.36-80.94,33.28L434,526.53c15.5-14.52,34.25-22.46,55.75-23.78Zm-.05,208.89c-26.24-3.39-34.37-6.89-55.55-23.59l-25.23,25.1c22.61,20.79,49.4,32.07,80.78,33.09Zm5.65-174.12A86.42,86.42,0,0,1,526.2,509,87.55,87.55,0,0,1,552,525l23.89-23.81c-22.54-20.8-49.33-32-80.6-33.08Zm57.15,151.42c-16.24,14.49-35.3,22-57,22.67v34.65c31.39-1.19,58.17-12.4,80.9-33.56Zm28.07,19.32c19.15-17.72,37.27-61.89,33.08-81H581.17c-4.5,29.62-4.5,29.62-24.06,57.43Zm.38-86.63h33.29c-1.22-31.39-12.39-58.29-33.53-81l-23.78,23.75Q579.24,553.57,580.93,586.91Z"/><path class="cls-3" d="M537.61,582.82c2.39-1.13,4.48-2.34,6.72-3.14,4.58-1.63,8.29-.25,9.8,4.26a34.9,34.9,0,0,1-3.94,31.15c-2.3,3.59-6.23,4.07-10.06,2.09-2.21-1.14-3.78-3-5.9-4.82a205.69,205.69,0,0,1-9.51,23.31c-1.55,3.25-3.23,4.59-7.06,4.53-16.62-.28-33.26-.17-49.89-.07a4.33,4.33,0,0,1-4.48-2.71c-9.59-18.12-15-37.16-13.64-57.88.53-8.1.3-8.12,8.21-8.12,25.07,0,50.14.07,75.21-.08,3,0,3.87,1,4,3.69S537.41,580.11,537.61,582.82Zm14.07,11.79a20.8,20.8,0,0,0-1.34-8.63c-1-2.47-2.71-3.13-5-2.1-4.38,2-8.57,4.14-8.29,10.14a20.66,20.66,0,0,1-.87,8c-1.78,4.8,1.1,7.31,4,9.91,3.45,3.06,5.59,2.66,7.78-1.39C550.71,605.55,551.43,600.12,551.68,594.61Z"/><path class="cls-3" d="M495.51,541.42a14.54,14.54,0,0,1-.78,4.84,7.66,7.66,0,0,0-.07,6c1.42,3.49.76,6.88-.29,10.34a2.07,2.07,0,0,1-2.69,1.66c-1.9-.27-1.14-1.87-.84-2.56,1.53-3.48.09-6.87.11-10.26.05-6.33.67-12.65-.2-19a6,6,0,0,1,.65-2.44c.48-1.49.35-3.86,2.93-3,2.35.75,1,2.73.52,3.91a9.72,9.72,0,0,0,0,7.08A17,17,0,0,1,495.51,541.42Z"/><path class="cls-3" d="M511.59,542.06c-2.86,3.78,2.46,8.43-.89,12.55-.59.72.52,1.77.91,2.64,1,2.24.43,4.24-.78,6.22-.84,1.38-2.21,1.14-3.21.81s-.41-1.54,0-2.19c1-1.78.14-3.36,0-5.11-.36-4.6-.12-9.26-.3-13.91a2.59,2.59,0,0,1,3.2-2.65C511.36,540.57,511.89,540.79,511.59,542.06Z"/><path class="cls-3" d="M478.89,541.36a8.22,8.22,0,0,0-.19,8.12,3,3,0,0,1-.21,2.45c-1.3,2.25-1,4.3.06,6.54.86,1.83-.12,3.53-.94,5.18s-2.25,1.14-3.19.8c-1.25-.46-.53-1.76,0-2.48,1.05-1.54.24-2.82,0-4.36-.64-4.72.05-9.51-.14-14.29C474.19,541.18,476.34,540.22,478.89,541.36Z"/></svg>